<svg version="1.1" xmlns="http://www.w3.org/2000/svg" viewBox="0 0 423 290" width="423" height="290" filter="invert(93%) hue-rotate(180deg)">
  <!-- svg-source:excalidraw -->
  
  <defs>
    <style class="style-fonts">
      @font-face {
        font-family: "Virgil";
        src: url("https://excalidraw.com/Virgil.woff2");
      }
      @font-face {
        font-family: "Cascadia";
        src: url("https://excalidraw.com/Cascadia.woff2");
      }
    </style>
  </defs>
  <g stroke-linecap="round" transform="translate(10 10) rotate(0 83.5 52.5)"><path d="M3.9 10.01 C3.9 10.01, 3.9 10.01, 3.9 10.01 M3.9 10.01 C3.9 10.01, 3.9 10.01, 3.9 10.01 M0.36 20.19 C2 15.68, 7.48 13.48, 12.82 5.85 M0.36 20.19 C3.82 16.7, 4.81 14.04, 12.82 5.85 M0.1 26.58 C4.51 22.23, 12.12 14.31, 19.12 4.7 M0.1 26.58 C5.89 21.04, 10.89 14.3, 19.12 4.7 M0.49 32.23 C4.95 25.85, 11.26 16.28, 27.39 1.28 M0.49 32.23 C8.05 23.67, 15.43 16.16, 27.39 1.28 M0.23 38.62 C11.32 28.13, 20.05 13.59, 33.03 0.89 M0.23 38.62 C9.13 28.13, 19.07 17.76, 33.03 0.89 M0.62 44.27 C15.41 29.5, 27.01 11.14, 38.02 1.25 M0.62 44.27 C11.19 31.89, 21.16 20.35, 38.02 1.25 M0.36 50.67 C17.08 32.02, 33.45 9.58, 43.66 0.85 M0.36 50.67 C16.29 33.28, 30.33 15.63, 43.66 0.85 M0.1 57.06 C12.65 41.17, 28.5 22.99, 48.65 1.21 M0.1 57.06 C16.7 39.13, 32.41 21.03, 48.65 1.21 M0.5 62.71 C15.04 44.62, 31.73 27.23, 54.29 0.82 M0.5 62.71 C17.51 42.23, 35.78 20.03, 54.29 0.82 M0.23 69.1 C14.45 48.46, 30.86 31.9, 59.28 1.18 M0.23 69.1 C16.55 49.16, 33.47 29.55, 59.28 1.18 M0.63 74.75 C13.73 59.13, 26.74 46.34, 64.92 0.79 M0.63 74.75 C21.72 48.76, 44.82 24.22, 64.92 0.79 M0.37 81.15 C27.16 50.04, 52.43 22.61, 69.91 1.15 M0.37 81.15 C15.32 64.58, 29.34 48.18, 69.91 1.15 M1.42 86.03 C27.69 53.38, 54.17 23.92, 75.55 0.75 M1.42 86.03 C26.56 56.51, 52.66 26.9, 75.55 0.75 M3.12 90.17 C22.66 68.59, 44.43 44.85, 80.54 1.11 M3.12 90.17 C24.81 64.59, 45.68 40.93, 80.54 1.11 M4.18 95.06 C22.54 71.5, 43.71 49.01, 85.53 1.47 M4.18 95.06 C22.98 75.94, 39.04 56.05, 85.53 1.47 M7.19 97.68 C26.29 74.45, 47.44 49.44, 91.17 1.08 M7.19 97.68 C35.31 65.19, 65.66 30.73, 91.17 1.08 M9.56 101.06 C31.71 75.01, 54.97 50.72, 96.16 1.44 M9.56 101.06 C33.29 72.35, 56.72 44.82, 96.16 1.44 M12.58 103.68 C35.79 76.3, 60.05 51.98, 101.8 1.04 M12.58 103.68 C43.6 69.53, 73.61 34.61, 101.8 1.04 M16.91 104.8 C46.59 70.23, 78.85 36.14, 106.79 1.4 M16.91 104.8 C51.42 66.26, 85.47 26.34, 106.79 1.4 M21.89 105.16 C41.45 81.05, 64.5 55.25, 112.43 1.01 M21.89 105.16 C48.53 75.14, 73.74 45.28, 112.43 1.01 M26.88 105.52 C57.77 70.76, 88.39 36.8, 117.42 1.37 M26.88 105.52 C46.64 83.1, 68 61.17, 117.42 1.37 M31.87 105.88 C63.38 70.42, 93.95 36.64, 123.06 0.97 M31.87 105.88 C57.37 75.97, 82.87 48.15, 123.06 0.97 M37.51 105.48 C56.5 81.04, 75.65 60.34, 128.05 1.33 M37.51 105.48 C72.11 64.49, 107.74 25.11, 128.05 1.33 M42.5 105.84 C74.58 67.31, 106.97 31.49, 133.69 0.94 M42.5 105.84 C69.01 74.06, 97.7 42.24, 133.69 0.94 M48.14 105.45 C73.89 76.4, 102.3 45.91, 138.68 1.3 M48.14 105.45 C79.11 70.51, 110.82 35.08, 138.68 1.3 M53.13 105.81 C77.55 78.76, 99.39 48.58, 143.01 2.41 M53.13 105.81 C72.55 84.75, 90.13 64.5, 143.01 2.41 M58.77 105.41 C86.89 71.68, 118.36 37.67, 147.34 3.53 M58.77 105.41 C80.37 81.37, 101.76 56.01, 147.34 3.53 M63.76 105.77 C89.05 75.74, 117.66 45.16, 152.33 3.89 M63.76 105.77 C93.66 72.2, 122.51 38.25, 152.33 3.89 M69.4 105.38 C95.02 72.77, 122.01 46, 157.31 4.25 M69.4 105.38 C97.23 72.95, 126.12 40.83, 157.31 4.25 M74.39 105.74 C99.2 78.38, 122.39 48.17, 160.33 6.87 M74.39 105.74 C100.78 73.79, 126.69 43.12, 160.33 6.87 M80.03 105.35 C112.43 69.09, 146.01 30.48, 162.69 10.25 M80.03 105.35 C104.05 77.21, 129.76 50.6, 162.69 10.25 M85.02 105.71 C106.7 80.02, 130.42 51.13, 165.71 12.88 M85.02 105.71 C105.94 84.21, 123.83 61.75, 165.71 12.88 M90.66 105.31 C108.66 81.56, 128.97 62.57, 167.42 17.01 M90.66 105.31 C116.33 74.94, 142.46 43.65, 167.42 17.01 M95.65 105.67 C123.47 74.85, 148.54 43.59, 168.47 21.9 M95.65 105.67 C118.67 80.28, 141.87 54.83, 168.47 21.9 M101.29 105.28 C118.86 85.58, 136.2 61.3, 168.87 27.54 M101.29 105.28 C126.14 76.34, 149.65 49.03, 168.87 27.54 M106.28 105.64 C120.17 91.59, 135.29 72.67, 168.6 33.94 M106.28 105.64 C131.39 78.18, 154.78 51.29, 168.6 33.94 M111.92 105.24 C130.37 86.42, 150.08 65.8, 169 39.58 M111.92 105.24 C130.11 85.74, 145.8 65.86, 169 39.58 M116.91 105.6 C136.65 82.19, 154.53 60.15, 168.74 45.98 M116.91 105.6 C137.13 80.74, 159.05 57.33, 168.74 45.98 M122.55 105.21 C135.66 92.18, 148.01 79.29, 168.48 52.38 M122.55 105.21 C139.13 85.22, 156.37 66.06, 168.48 52.38 M127.54 105.57 C141.05 92.62, 155.64 74.02, 168.87 58.02 M127.54 105.57 C144.65 85.39, 159.87 68.07, 168.87 58.02 M133.18 105.17 C148.02 89.21, 160.87 75.41, 168.61 64.42 M133.18 105.17 C144.75 91.31, 157.08 76.64, 168.61 64.42 M138.17 105.53 C145.62 96.33, 150.99 89.05, 169 70.06 M138.17 105.53 C146.28 95.91, 155.09 84.56, 169 70.06 M142.5 106.65 C148.47 99.21, 155.33 91.95, 168.74 76.46 M142.5 106.65 C153.12 95.22, 162.02 84, 168.74 76.46 M149.45 104.74 C154.18 100, 162.69 91.97, 169.79 81.35 M149.45 104.74 C154.68 98.57, 160.42 93.43, 169.79 81.35" stroke="#e64980" stroke-width="0.5" fill="none"/><path d="M26.25 0 M26.25 0 C56.43 0.73, 84.81 0.17, 140.75 0 M26.25 0 C68.34 -0.46, 108.78 -1.06, 140.75 0 M140.75 0 C156.98 1.78, 168.68 9.29, 167 26.25 M140.75 0 C156.26 1.98, 167.55 10.48, 167 26.25 M167 26.25 C167.29 43.81, 168.2 61.15, 167 78.75 M167 26.25 C167.88 45.74, 166.91 66.47, 167 78.75 M167 78.75 C165.45 94.31, 158.82 104.19, 140.75 105 M167 78.75 C168.17 97.72, 158.56 106.27, 140.75 105 M140.75 105 C113.09 105.21, 80.58 106.67, 26.25 105 M140.75 105 C118.17 105, 95.29 105.65, 26.25 105 M26.25 105 C8.89 104.83, -0.33 94.59, 0 78.75 M26.25 105 C6.51 106, 1.75 95.76, 0 78.75 M0 78.75 C-0.84 62.76, 0.63 45.5, 0 26.25 M0 78.75 C-0.91 62.48, -0.37 45.78, 0 26.25 M0 26.25 C1.66 8.23, 8.53 -0.46, 26.25 0 M0 26.25 C-1.3 10.45, 8.94 -0.49, 26.25 0" stroke="#a61e4d" stroke-width="1" fill="none"/></g><g stroke-linecap="round" transform="translate(16 134) rotate(0 76.5 73)"><path d="M25.29 19.34 C25.29 19.34, 25.29 19.34, 25.29 19.34 M25.29 19.34 C25.29 19.34, 25.29 19.34, 25.29 19.34 M6.67 47.19 C15 36.6, 27.16 23.92, 37.38 13.38 M5.96 47.64 C13.02 40.07, 20.32 31.38, 34.54 14.05 M5.73 55.99 C11.72 44.06, 20.36 36.42, 45.45 8.11 M4.14 55.17 C20.17 35.64, 37.03 17.25, 45.26 7.65 M5.36 60.82 C21.73 41.59, 41.9 21.54, 53.4 5.8 M3.97 61.75 C20.82 41.92, 38.66 22.34, 54.65 3.44 M1.37 70.12 C21.47 46.97, 45.68 20.18, 59.45 2.24 M1.49 70.61 C18.01 52.63, 34.15 35.56, 60.5 3.16 M-1.64 79.99 C21.77 51.85, 43.03 28.8, 64.76 2.1 M-1.28 79.46 C23.31 54.91, 44.57 29.03, 65.41 3.67 M1.26 82.11 C21.67 60.38, 41.04 37.52, 73.2 4.43 M0.86 82.86 C16.78 65.98, 32.95 48.37, 72.17 2.8 M2.44 86.66 C26.43 60.61, 49.26 34.4, 78.86 2.71 M3.04 87.4 C28.7 58.94, 54.35 29.38, 76.86 1.78 M5.77 92.43 C22.57 70.39, 44.3 47, 82.99 -0.19 M3.96 92.27 C26.97 66.92, 49.66 40.6, 83.44 0.54 M5.59 96.08 C24.59 75.75, 42.59 56.3, 86.9 -0.51 M6.53 96.86 C25.59 76.29, 42.7 55.13, 88.31 1.67 M6.96 100.45 C38.19 63.59, 73.34 25.27, 93.53 4.19 M7.75 101.48 C32.78 72.88, 57.96 42.62, 93.45 2.46 M7.95 104.02 C40.15 69.11, 71.54 33.38, 97.04 1.7 M8.55 105.15 C30.09 80.45, 52.97 56.02, 97.67 4.07 M9.8 110.42 C30.37 86.63, 51.42 65.84, 101.75 6.5 M9.68 109.49 C34.09 84.69, 55.69 59.8, 101.15 5.16 M14.6 111.15 C39.41 83.16, 65.98 52.82, 105.68 7.68 M12.92 111.87 C37.65 84.82, 61.84 56.56, 104.62 6.24 M16.16 114.91 C41.14 86.49, 67.65 53.15, 108.19 10.01 M15.66 115.03 C46.14 81.43, 76.23 47.24, 108.65 9.07 M18.96 120.27 C51.88 82.96, 81.62 44.24, 111.51 11.64 M19.39 118.2 C47.19 87.06, 74.07 54.66, 112.72 8.75 M23.66 121.94 C57.63 79.87, 95.19 35.06, 115.72 9.89 M20.89 121.72 C48.31 88.27, 76.93 55.7, 115.92 11.92 M23.41 123.05 C56.51 83.47, 88 49.41, 120.22 10.96 M24.19 123.65 C56.72 86.14, 89.53 49.86, 122.04 12.77 M26.11 128.62 C52.17 94.36, 81.05 67.36, 126.16 16.46 M26.37 127.7 C56.12 92.78, 86.66 59.91, 123.51 16.04 M28.6 131.04 C50.99 104.71, 71.37 79.71, 126.48 20.38 M29.45 129.03 C66.67 87.03, 102.16 44.37, 127.23 18.27 M32.97 130.41 C71.01 91.64, 106.91 48.84, 128.31 23.12 M32.28 132.93 C60.01 102.33, 86.68 72.04, 130.46 20.29 M38.12 134.41 C61.25 105.7, 85.95 80.97, 133.84 22.99 M37.74 133.19 C73.85 90.4, 113.03 45.57, 131.39 25.01 M41.33 137.17 C69.52 103.04, 95.95 72.1, 133.88 25.92 M39.97 135.19 C71.17 101.11, 101.29 66.06, 134.29 27.59 M45.21 135.94 C67.04 112.69, 89.16 87.88, 138.84 31.27 M44.87 137.06 C74.93 100.91, 105.42 64.7, 138.15 31.57 M46.58 138.63 C75.89 108.65, 105.21 75.14, 140.23 33.53 M48.7 139.55 C77.97 105.32, 108.71 70.37, 139.75 32.95 M52.75 139.06 C74.43 115.85, 95.64 91.51, 141.66 36.09 M51.87 141.65 C82.7 105.45, 112.48 70.83, 142.35 36.36 M55.74 142.92 C78.35 119.44, 97.73 95.76, 143.04 42.49 M56.89 140.93 C89.83 105.83, 122.96 66.81, 145.45 40.66 M58.56 141.82 C87.33 115.34, 112.2 84.06, 147.48 45.68 M60.22 144 C84.59 114.47, 107.63 88.31, 145.39 46.59 M63.44 144.52 C97.53 109.2, 127.51 73.01, 146.9 50.24 M64.15 146.05 C88.98 115.58, 113.97 86.99, 146.51 49.36 M69.42 147.65 C97.14 110.49, 127.9 78.91, 146.33 56.65 M67.98 148 C90.26 120.26, 115.13 91.95, 149.11 55.29 M71.24 148.51 C91.36 127.2, 110.02 104.72, 149.39 59.05 M72.58 147.65 C100.91 116.32, 128.99 84.5, 150.55 57.95 M78.32 146.8 C98.73 119.69, 123.75 97.18, 149.28 62.97 M78.96 145.79 C96.66 127.39, 113.55 106.94, 151.9 64.29 M86.34 144.62 C109.55 117.05, 132.91 92.66, 154.34 67.09 M85.47 146.57 C108.53 118.9, 131.63 90.3, 153.05 68.7 M92.04 143.21 C108.88 123.73, 123.69 105, 156.31 71.49 M92.29 144.64 C114.68 116.8, 138.69 90.84, 154.65 71.72 M97.6 143.22 C117.98 119.14, 141.14 92.99, 155.95 76.42 M99.35 141.73 C113.39 125.36, 129.39 108.76, 153.38 79.15 M106.14 136.67 C124.24 117.05, 138.81 101.3, 153.84 86 M107.51 137.07 C122.15 120.52, 137.07 105.81, 152.28 86.1 M118.76 135.02 C130.63 119.37, 144.2 103.22, 150.04 93.74 M117.18 133.79 C126.27 121.22, 137.53 110.16, 150.13 94.95 M124.62 129.6 C137.32 117.35, 146.2 107.75, 149.7 100.81 M126.09 127.73 C133.41 119.86, 139.82 112.24, 148.64 101.92" stroke="#868e96" stroke-width="0.5" fill="none"/><path d="M87.9 0.43 C98.6 0.72, 111.2 5.9, 120.33 11.85 C129.46 17.79, 137.31 26.68, 142.67 36.12 C148.04 45.57, 151.82 57.98, 152.52 68.52 C153.21 79.06, 150.8 89.63, 146.86 99.36 C142.92 109.1, 137 119.77, 128.86 126.93 C120.72 134.08, 108.53 139.1, 98.03 142.28 C87.52 145.46, 76.68 147.64, 65.82 145.99 C54.97 144.34, 42.18 138.51, 32.9 132.37 C23.62 126.24, 15.66 118.12, 10.14 109.21 C4.62 100.29, 0.65 89.24, -0.24 78.9 C-1.13 68.56, 0.58 57.08, 4.82 47.17 C9.06 37.26, 16.97 26.77, 25.18 19.46 C33.39 12.15, 41.55 5.9, 54.09 3.31 C66.63 0.73, 90.49 2.89, 100.42 3.96 C110.35 5.02, 113.84 8.68, 113.68 9.7 M92.39 0.65 C102.47 1.67, 112.56 7.88, 121.4 14.38 C130.23 20.88, 140.01 30.25, 145.42 39.64 C150.83 49.04, 153.52 60.09, 153.85 70.75 C154.19 81.42, 152.07 93.99, 147.41 103.63 C142.75 113.26, 134.4 121.83, 125.89 128.57 C117.37 135.3, 106.86 141.59, 96.32 144.07 C85.78 146.54, 73.71 145.62, 62.63 143.4 C51.56 141.18, 38.92 136.86, 29.87 130.76 C20.82 124.67, 13.34 116.15, 8.31 106.84 C3.28 97.52, -0.22 85.47, -0.32 74.87 C-0.42 64.26, 2.95 53.07, 7.74 43.21 C12.52 33.35, 19.94 22.41, 28.38 15.69 C36.82 8.98, 47.67 5.39, 58.36 2.9 C69.05 0.4, 87.23 0.81, 92.52 0.72 C97.81 0.63, 90.57 0.88, 90.11 2.37" stroke="#000000" stroke-width="1" fill="none"/></g><g stroke-linecap="round" transform="translate(246 10) rotate(0 83.5 52.5)"><path d="M3.9 10.01 C3.9 10.01, 3.9 10.01, 3.9 10.01 M3.9 10.01 C3.9 10.01, 3.9 10.01, 3.9 10.01 M0.36 20.19 C5.73 15.98, 7.94 11.06, 12.82 5.85 M0.36 20.19 C2.39 16.87, 6.28 13.38, 12.82 5.85 M0.1 26.58 C3.64 19.47, 9.11 13.9, 19.12 4.7 M0.1 26.58 C6.17 19.49, 12.49 10.91, 19.12 4.7 M0.49 32.23 C6.37 25.22, 15.43 17.58, 27.39 1.28 M0.49 32.23 C8.97 21.32, 17.87 11.05, 27.39 1.28 M0.23 38.62 C7.34 28.24, 16.37 18.46, 33.03 0.89 M0.23 38.62 C6.66 29.68, 14.68 21.39, 33.03 0.89 M0.62 44.27 C10.03 33.76, 18.94 24.3, 38.02 1.25 M0.62 44.27 C9.21 34.9, 16.28 26.13, 38.02 1.25 M0.36 50.67 C16.46 32.84, 31.63 12.02, 43.66 0.85 M0.36 50.67 C16.73 31.6, 34.59 11.39, 43.66 0.85 M0.1 57.06 C10.77 44.05, 21.37 29.77, 48.65 1.21 M0.1 57.06 C14.82 41.54, 26.9 26.5, 48.65 1.21 M0.5 62.71 C16.12 48.66, 26.55 30.35, 54.29 0.82 M0.5 62.71 C21.44 39.11, 40.43 15.35, 54.29 0.82 M0.23 69.1 C23.83 43.37, 44.57 18.25, 59.28 1.18 M0.23 69.1 C18.89 47.99, 37.23 26.95, 59.28 1.18 M0.63 74.75 C22.03 51.45, 40.48 32.12, 64.92 0.79 M0.63 74.75 C23.11 49.01, 45.21 24.14, 64.92 0.79 M0.37 81.15 C22.08 53.87, 47.28 25.94, 69.91 1.15 M0.37 81.15 C23.15 53.44, 46.79 26.23, 69.91 1.15 M1.42 86.03 C23.82 55.69, 50.48 30.52, 75.55 0.75 M1.42 86.03 C21.97 62.39, 42.97 38.81, 75.55 0.75 M3.12 90.17 C19.83 67.58, 40.46 48.75, 80.54 1.11 M3.12 90.17 C20.17 70.93, 37.69 53.37, 80.54 1.11 M4.18 95.06 C26.23 70.24, 48.62 45.33, 85.53 1.47 M4.18 95.06 C35.23 59.53, 65.9 21.95, 85.53 1.47 M7.19 97.68 C29.29 69.5, 50.32 44.14, 91.17 1.08 M7.19 97.68 C39.09 60.02, 71.7 23.4, 91.17 1.08 M9.56 101.06 C32.65 73.31, 57.15 42.54, 96.16 1.44 M9.56 101.06 C32.53 74.09, 55.8 46.97, 96.16 1.44 M12.58 103.68 C42.94 69.86, 71.26 34.54, 101.8 1.04 M12.58 103.68 C42.04 69.63, 70.53 35.34, 101.8 1.04 M16.91 104.8 C41.43 74.13, 68.21 44.04, 106.79 1.4 M16.91 104.8 C52.85 65.6, 86.22 24.84, 106.79 1.4 M21.89 105.16 C54.06 65.41, 90.21 24.6, 112.43 1.01 M21.89 105.16 C55.25 67.32, 86.83 30.34, 112.43 1.01 M26.88 105.52 C46.09 82.53, 66.56 57.99, 117.42 1.37 M26.88 105.52 C61.7 64.38, 96.55 25.99, 117.42 1.37 M31.87 105.88 C59.08 76.76, 84.03 45.45, 123.06 0.97 M31.87 105.88 C65.03 65.55, 99.67 26.49, 123.06 0.97 M37.51 105.48 C70.2 69.92, 101.49 31.74, 128.05 1.33 M37.51 105.48 C67.14 68.92, 97.89 34.29, 128.05 1.33 M42.5 105.84 C76.79 66, 110.95 28.18, 133.69 0.94 M42.5 105.84 C71.44 70.81, 101.99 37.78, 133.69 0.94 M48.14 105.45 C79.37 67.67, 112.96 31.07, 138.68 1.3 M48.14 105.45 C80.32 68.53, 112.08 32.52, 138.68 1.3 M53.13 105.81 C74.08 82.41, 95.84 54.43, 143.01 2.41 M53.13 105.81 C85.42 69.59, 117.41 33.45, 143.01 2.41 M58.77 105.41 C82.98 74.54, 109.45 48.67, 147.34 3.53 M58.77 105.41 C87.48 73.46, 116.74 40.35, 147.34 3.53 M63.76 105.77 C98.98 64.42, 133 22.6, 152.33 3.89 M63.76 105.77 C84.86 82.54, 106.73 57.74, 152.33 3.89 M69.4 105.38 C105.01 67.44, 140.66 24.74, 157.31 4.25 M69.4 105.38 C104.36 65.92, 138.3 24.84, 157.31 4.25 M74.39 105.74 C92.82 83.77, 113.18 64.41, 160.33 6.87 M74.39 105.74 C105.88 69.98, 139.17 32.22, 160.33 6.87 M80.03 105.35 C101.43 80.49, 122.02 56.96, 162.69 10.25 M80.03 105.35 C107.95 73.99, 133.72 43.2, 162.69 10.25 M85.02 105.71 C113.9 73.3, 140.73 39.1, 165.71 12.88 M85.02 105.71 C115.4 71.54, 143.58 37.34, 165.71 12.88 M90.66 105.31 C114.08 77.44, 138.24 49.24, 167.42 17.01 M90.66 105.31 C111.86 80.55, 133.26 56.65, 167.42 17.01 M95.65 105.67 C123.8 74.01, 146.82 45.07, 168.47 21.9 M95.65 105.67 C113.7 85.97, 131.52 65.41, 168.47 21.9 M101.29 105.28 C121.24 80.36, 143.33 56.44, 168.87 27.54 M101.29 105.28 C117.42 88.3, 132.44 69.41, 168.87 27.54 M106.28 105.64 C119.56 89.28, 134.45 72.05, 168.6 33.94 M106.28 105.64 C123.7 86.79, 139.79 68.68, 168.6 33.94 M111.92 105.24 C126.7 87.79, 139.41 71.39, 169 39.58 M111.92 105.24 C123.89 91.36, 135.34 78.17, 169 39.58 M116.91 105.6 C129.16 88.79, 145.35 73.87, 168.74 45.98 M116.91 105.6 C131.17 89.93, 144.81 71.48, 168.74 45.98 M122.55 105.21 C134.58 94.32, 144.29 82.98, 168.48 52.38 M122.55 105.21 C132.41 94.7, 141.88 82.47, 168.48 52.38 M127.54 105.57 C138.42 94.57, 148.09 81.02, 168.87 58.02 M127.54 105.57 C143.14 87.86, 159.92 68.98, 168.87 58.02 M133.18 105.17 C148.51 89.07, 162.34 71.79, 168.61 64.42 M133.18 105.17 C144.4 92.26, 155.79 79.35, 168.61 64.42 M138.17 105.53 C148.41 93.39, 156.34 84.17, 169 70.06 M138.17 105.53 C147.42 95.98, 155.89 84.85, 169 70.06 M142.5 106.65 C149.26 99.3, 153.69 93.7, 168.74 76.46 M142.5 106.65 C151.54 94.42, 160.81 83.52, 168.74 76.46 M149.45 104.74 C154.75 99.13, 161.25 90.94, 169.79 81.35 M149.45 104.74 C156.09 97.45, 160.78 91.85, 169.79 81.35" stroke="#868e96" stroke-width="0.5" fill="none"/><path d="M26.25 0 M26.25 0 C55.31 -0.98, 82.3 0.18, 140.75 0 M26.25 0 C56.19 -0.09, 85.16 -0.57, 140.75 0 M140.75 0 C157.41 -0.31, 166.89 7.2, 167 26.25 M140.75 0 C158 -0.04, 165.13 10.04, 167 26.25 M167 26.25 C167.97 38.67, 166.31 49.65, 167 78.75 M167 26.25 C167.75 38.08, 168 49.92, 167 78.75 M167 78.75 C168.08 97.08, 157.83 104.02, 140.75 105 M167 78.75 C167.25 98.49, 159.01 106.46, 140.75 105 M140.75 105 C119 103.83, 92.05 103.27, 26.25 105 M140.75 105 C98.99 105.2, 56.44 104.9, 26.25 105 M26.25 105 C6.97 106.76, 0.98 95.97, 0 78.75 M26.25 105 C10.93 106.15, -0.59 97.69, 0 78.75 M0 78.75 C-1.33 62.48, 1.71 48.17, 0 26.25 M0 78.75 C-0.23 67.78, -0.74 55.43, 0 26.25 M0 26.25 C0.82 9.47, 9.73 1.98, 26.25 0 M0 26.25 C-1.58 8.15, 8.6 -2.16, 26.25 0" stroke="#000000" stroke-width="1" fill="none"/></g><g stroke-linecap="round" transform="translate(252 134) rotate(0 76.5 73)"><path d="M15.2 29.11 C15.2 29.11, 15.2 29.11, 15.2 29.11 M15.2 29.11 C15.2 29.11, 15.2 29.11, 15.2 29.11 M9.96 44.17 C15.36 35.1, 24.46 22.48, 28.77 19.06 M8.34 42.33 C13.89 37.45, 18.02 32.29, 30.64 17.86 M0.45 55.74 C14.96 41.67, 25.68 31.22, 43.84 9.22 M2.03 56.97 C14.39 43.73, 26.23 28.52, 43.19 9.39 M1.65 60.03 C15.74 42.79, 30.56 28.33, 51.18 9.13 M3.95 60.96 C13.66 48.69, 23.87 37.08, 49.13 8.28 M1.26 65.75 C16.21 53.74, 26.51 36.94, 54.44 5.93 M2.59 66.95 C14.01 55, 24.24 43.13, 55.73 7.24 M4.86 71.5 C18.19 53.2, 38.23 35.36, 63.16 2.77 M3.81 72.94 C17.35 56.36, 31.24 41.27, 62.95 5.08 M2.57 77.14 C23.37 56.61, 43.05 32.7, 69.12 2.31 M3.82 79.29 C22.25 57.35, 40.16 36.15, 70.25 3.83 M3.42 84.99 C30.24 54.67, 57 21.18, 74.75 1.64 M3.94 85.56 C31.15 52.97, 60.76 22.26, 75.29 1.32 M4.38 90.59 C28.16 66.95, 49.21 39.48, 80.89 1.12 M4.07 90.85 C26.58 65.66, 49.21 37.91, 80.13 1.61 M6.14 94.96 C27.56 71.86, 47.74 46.03, 87.15 3.3 M4.76 95.73 C38.18 58.81, 69.92 22.76, 85.93 3.54 M8.26 98.12 C22.84 77.61, 41.75 59.28, 91.1 2.47 M6.76 99.34 C38.12 64.17, 67.94 28.06, 90.51 3.93 M8.19 103.54 C39.43 68.56, 71.59 29.87, 95.88 4.4 M8.45 103.56 C31.75 77.21, 54.92 51.23, 94.38 4.92 M11.66 107.42 C33.09 82.23, 51.31 59.29, 97.45 3.84 M10.58 105.77 C34.25 78.73, 59.15 50.64, 100.31 5.09 M11.83 108.2 C39.54 79.01, 66.45 48.27, 105.52 6.74 M13.78 110.11 C41.61 79.41, 68.03 47.6, 104.68 5.35 M15 112.54 C45.79 79.29, 75.12 45.01, 110.06 8.57 M14.67 115.03 C50.95 74.39, 84.76 33.93, 108.33 6.83 M18.35 117.33 C44.4 90.88, 68.1 60.14, 113.04 10 M17.95 116.9 C53.65 77.03, 88.9 35.12, 112.68 8.2 M21.74 122.41 C40.71 98.79, 60.2 75.95, 114.78 10.69 M20.6 120.44 C49.98 87.06, 79.43 55.29, 114.51 11.09 M22.72 123.14 C48.22 96.99, 71.24 71.12, 118.45 12.74 M23.27 122.82 C45.23 98.42, 67.37 74.75, 118.74 13.22 M25.69 125.57 C48.07 99.95, 67.84 76.7, 121.1 17.77 M25.78 126.53 C49.62 98.9, 72.91 70.48, 121.89 14.98 M27.62 128.51 C47.17 105.99, 67.93 83.34, 123.44 17.36 M29.23 129.01 C61.88 92.49, 93.75 53.09, 124.27 17.62 M33.75 131.7 C54.97 103.2, 80.64 74.56, 129.58 20.82 M32.11 130.52 C61.7 98.04, 89.02 67.84, 128.01 20.55 M34.79 135.16 C61.38 100.98, 90.26 70.97, 132.11 22.42 M35.79 133.02 C66.5 99.06, 96.61 63.58, 130.58 24.29 M38.53 134.85 C59.54 114.98, 78.77 92.49, 133.15 24.18 M38.63 135.55 C62.47 109.83, 85.65 83.19, 134.22 24.79 M43.68 137.22 C62.39 116.65, 82.49 92.82, 137.55 27.09 M42.08 138.34 C67.61 108.85, 94.58 78.58, 137.42 28.32 M45.63 141.69 C76.13 106.71, 105.4 70.45, 139.17 32.36 M44.85 140.96 C65.95 115.41, 87.22 93.09, 139.72 32.38 M49.44 142.91 C75.76 114.3, 100.79 84.4, 142.67 35.43 M50.33 142.15 C71.99 113.94, 95.1 88.62, 141.75 35.25 M55.03 142.51 C76.66 114.03, 99.47 87.12, 145.31 40.96 M54.07 143.25 C78.93 112.29, 103.78 82.69, 143.48 40.7 M58.22 143.35 C93.81 103.43, 124.7 66.68, 146.63 44.35 M59.25 142.05 C94.04 104.13, 128.62 62.86, 146.25 43.03 M62.47 142.25 C85.4 119.38, 107.89 95.96, 146.95 45.97 M62.79 143.16 C97.88 105.78, 131.29 67.87, 147.62 47.03 M66.64 145.77 C102.77 108.95, 132.37 71.26, 148.36 49.4 M67.44 145.37 C100.16 107.2, 133.33 71.09, 150.78 51.79 M74.06 145.45 C95.64 118.14, 120.67 92.61, 152.55 56.49 M73.3 146.57 C91.39 125.82, 108.09 106.17, 150.75 55.37 M76.97 149.3 C105.87 117.17, 133.58 82.28, 150.51 60.78 M76.57 146.84 C93.44 128.53, 111.33 107.03, 152.41 61.9 M80.24 150.04 C109.46 116.72, 133.79 86.98, 151.62 66.78 M81.69 148.33 C109.11 115.71, 136.52 82.53, 152 66.42 M87.8 146.39 C108.73 122.46, 127.56 101.06, 150.74 71.01 M88.11 146.12 C102.45 130.14, 116.29 115.41, 152.6 73.6 M94.44 144.29 C109.95 124.16, 130.52 107.41, 152.64 77.43 M94.47 145.17 C108.5 129.97, 120.58 116.07, 152.89 78.78 M101.5 144.16 C116.26 127.57, 127.5 110.81, 151.74 85.76 M102.7 143.09 C122.08 121.07, 140.45 97.79, 153.3 83.87 M112.57 137.13 C128.95 117.39, 143.21 99.7, 153.16 86.17 M112.05 138.06 C126.39 120.89, 139.35 105.85, 155.43 87.73 M129.94 124.52 C134.21 117.88, 138.33 115.23, 146.72 103.4 M129.96 123.95 C134.31 117.97, 140.34 112.25, 146.42 103.89" stroke="#e64980" stroke-width="0.5" fill="none"/><path d="M107.49 5.41 C117.65 8.66, 127.74 17.84, 134.86 26.06 C141.99 34.27, 147.32 44.6, 150.24 54.7 C153.17 64.8, 154.67 76.34, 152.42 86.64 C150.16 96.94, 143.67 107.95, 136.7 116.49 C129.74 125.03, 120.25 132.8, 110.64 137.87 C101.02 142.94, 90.04 146.65, 79.03 146.91 C68.03 147.18, 54.73 143.98, 44.6 139.46 C34.47 134.94, 25.44 127.92, 18.25 119.79 C11.07 111.66, 4.38 100.81, 1.47 90.7 C-1.44 80.6, -1.45 69.35, 0.79 59.15 C3.03 48.95, 8 37.92, 14.89 29.48 C21.77 21.04, 32.14 13.3, 42.11 8.52 C52.07 3.75, 63.49 1.08, 74.67 0.83 C85.85 0.58, 103.29 5.62, 109.18 7.01 C115.07 8.4, 110.6 8.1, 109.99 9.17 M83.19 -0.67 C93.91 -0.82, 106.07 4.02, 115.76 9.38 C125.46 14.74, 135.47 22.64, 141.36 31.49 C147.24 40.34, 149.84 51.83, 151.06 62.48 C152.28 73.12, 152.06 85.27, 148.67 95.35 C145.28 105.42, 138.5 115.23, 130.71 122.94 C122.91 130.66, 112.18 137.82, 101.89 141.65 C91.61 145.47, 79.76 147.12, 68.99 145.9 C58.21 144.68, 46.63 139.92, 37.24 134.35 C27.86 128.77, 18.66 121.09, 12.66 112.45 C6.66 103.8, 2.92 92.7, 1.26 82.49 C-0.4 72.28, -0.82 61.28, 2.7 51.18 C6.21 41.07, 14.29 29.6, 22.34 21.85 C30.39 14.1, 40.7 8.32, 50.99 4.67 C61.29 1.01, 78.94 0.18, 84.1 -0.07 C89.27 -0.32, 82.24 1.93, 81.98 3.17" stroke="#a61e4d" stroke-width="1" fill="none"/></g></svg>