<svg version="1.1" xmlns="http://www.w3.org/2000/svg" viewBox="0 0 390 242" width="390" height="242" filter="invert(93%) hue-rotate(180deg)">
  <!-- svg-source:excalidraw -->
  
  <defs>
    <style class="style-fonts">
      @font-face {
        font-family: "Virgil";
        src: url("https://excalidraw.com/Virgil.woff2");
      }
      @font-face {
        font-family: "Cascadia";
        src: url("https://excalidraw.com/Cascadia.woff2");
      }
    </style>
  </defs>
  <g stroke-linecap="round" transform="translate(10 10) rotate(0 185 111)"><path d="M7.86 8.16 C7.86 8.16, 7.86 8.16, 7.86 8.16 M7.86 8.16 C7.86 8.16, 7.86 8.16, 7.86 8.16 M3.66 19.09 C9.27 11.16, 16.37 7.32, 18.1 2.48 M3.66 19.09 C7.58 14.35, 12.52 8.75, 18.1 2.48 M2.75 26.24 C9.35 18.79, 14.18 12.49, 24.4 1.33 M2.75 26.24 C10.12 17.02, 19.24 7.1, 24.4 1.33 M2.48 32.64 C13.61 21.77, 21.4 10.96, 30.7 0.18 M2.48 32.64 C12.82 21.62, 21.69 9.9, 30.7 0.18 M2.88 38.28 C12.23 27.64, 25.6 15.77, 34.37 2.05 M2.88 38.28 C11.19 29.99, 18.77 20.07, 34.37 2.05 M2.62 44.68 C15.08 27.78, 30.8 12.74, 39.36 2.41 M2.62 44.68 C13 31.94, 23.85 19.01, 39.36 2.41 M2.36 51.07 C17.23 33.16, 32.04 18.19, 45 2.02 M2.36 51.07 C17.71 32.48, 33.2 14.5, 45 2.02 M2.75 56.72 C19.03 41.66, 30.52 24.13, 49.99 2.38 M2.75 56.72 C15.48 41.07, 30.34 25.66, 49.99 2.38 M2.49 63.11 C17.55 43.25, 34.12 23.6, 55.63 1.98 M2.49 63.11 C21.4 41.34, 40.37 19.83, 55.63 1.98 M2.23 69.51 C19.74 51.78, 33.52 32.7, 60.62 2.34 M2.23 69.51 C21.47 48.16, 39.31 26.41, 60.62 2.34 M2.62 75.16 C24.15 52.83, 41.85 29.94, 66.26 1.95 M2.62 75.16 C23.89 50.61, 46.02 25.71, 66.26 1.95 M2.36 81.55 C27.6 49.98, 53.89 20.17, 71.25 2.31 M2.36 81.55 C20.37 62.04, 37.35 43.11, 71.25 2.31 M2.76 87.2 C24.96 61.9, 47.34 35.97, 76.89 1.91 M2.76 87.2 C28.61 54.97, 56.31 24.48, 76.89 1.91 M2.49 93.59 C30.52 63.13, 56.49 29.99, 81.88 2.27 M2.49 93.59 C32.67 56.37, 64.24 21.22, 81.88 2.27 M2.23 99.99 C22.33 77.75, 40.14 53.37, 87.52 1.88 M2.23 99.99 C20.03 80.52, 35.37 59.82, 87.52 1.88 M2.63 105.64 C35.88 64.61, 74.8 25.71, 92.51 2.24 M2.63 105.64 C31.56 74.42, 57.73 43.26, 92.51 2.24 M2.37 112.03 C32.64 79.4, 61.01 48.96, 98.15 1.85 M2.37 112.03 C29.78 81.46, 55.89 50.26, 98.15 1.85 M2.1 118.43 C40.17 74.21, 73.95 31.15, 103.14 2.21 M2.1 118.43 C25.04 91.1, 48.85 64.98, 103.14 2.21 M2.5 124.07 C31.24 92.07, 59.78 59.27, 108.78 1.81 M2.5 124.07 C44.86 75.5, 87.15 25.91, 108.78 1.81 M2.24 130.47 C28.57 100.58, 56.52 69.29, 113.77 2.17 M2.24 130.47 C30.26 100.68, 55.14 69.91, 113.77 2.17 M2.63 136.11 C47.92 84.57, 92.31 34.11, 119.41 1.78 M2.63 136.11 C27.64 108.91, 50.77 82.39, 119.41 1.78 M2.37 142.51 C51.13 86.56, 99.16 32.56, 124.4 2.14 M2.37 142.51 C35.58 102.85, 69.6 63.91, 124.4 2.14 M2.11 148.91 C33.77 110.7, 64.29 78.33, 130.04 1.74 M2.11 148.91 C41.3 104.17, 79.15 59.39, 130.04 1.74 M2.5 154.55 C44.79 107.61, 90.8 55.77, 135.03 2.1 M2.5 154.55 C45.86 102.85, 91.53 52.5, 135.03 2.1 M2.24 160.95 C44.6 108.98, 91.08 60.54, 140.67 1.71 M2.24 160.95 C52.37 101.85, 103.72 42.76, 140.67 1.71 M1.98 167.35 C50.36 110.94, 100.73 54.65, 145.66 2.07 M1.98 167.35 C44.12 118.12, 85.6 69.34, 145.66 2.07 M2.38 172.99 C36.3 132, 72.91 92.31, 150.65 2.43 M2.38 172.99 C36.66 133.37, 71.07 93.88, 150.65 2.43 M2.11 179.39 C46.69 128, 91.9 75.35, 156.29 2.03 M2.11 179.39 C39.1 137.24, 75.81 93.88, 156.29 2.03 M1.85 185.79 C51.04 127.87, 101.31 68.15, 161.28 2.39 M1.85 185.79 C58.34 123.02, 113.48 57.36, 161.28 2.39 M2.25 191.43 C36.37 152.24, 72.2 110.89, 166.92 2 M2.25 191.43 C65.01 120.29, 128.85 47.43, 166.92 2 M2.64 197.07 C41.05 155.34, 77.45 111.23, 171.91 2.36 M2.64 197.07 C66.21 123.51, 132.46 48.36, 171.91 2.36 M3.69 201.96 C52.15 145.65, 101 91.16, 177.55 1.96 M3.69 201.96 C57.04 139.47, 112.02 76.86, 177.55 1.96 M4.74 206.85 C56.41 146.81, 109.6 86.05, 182.54 2.32 M4.74 206.85 C46.41 160.61, 86.47 115.72, 182.54 2.32 M6.45 210.98 C57.34 152.07, 110.21 92.57, 188.18 1.93 M6.45 210.98 C71.88 136.68, 136.26 62.58, 188.18 1.93 M9.47 213.61 C54.04 164.3, 99.54 113.26, 193.17 2.29 M9.47 213.61 C69.93 144.7, 129.57 75.48, 193.17 2.29 M11.83 216.99 C68.45 151, 127.25 83.38, 198.81 1.9 M11.83 216.99 C54.24 168.55, 97.23 119.92, 198.81 1.9 M14.85 219.61 C55.77 171.09, 98.31 121.39, 203.8 2.26 M14.85 219.61 C54.03 173.65, 92.85 129.85, 203.8 2.26 M19.18 220.73 C73.64 158.96, 127.87 96.84, 209.44 1.86 M19.18 220.73 C88.35 141.44, 156.19 62.04, 209.44 1.86 M22.86 222.6 C98.72 137.01, 176.64 47.78, 214.43 2.22 M22.86 222.6 C86.34 149.57, 149.13 75.47, 214.43 2.22 M27.19 223.71 C74.76 169.12, 122.38 112.66, 220.07 1.83 M27.19 223.71 C102.34 136.12, 177.58 50.04, 220.07 1.83 M32.83 223.32 C104.9 141.57, 175.31 60.42, 225.06 2.19 M32.83 223.32 C75.76 171.36, 121.05 120.41, 225.06 2.19 M38.47 222.92 C86.69 164.3, 136.14 109.7, 230.7 1.79 M38.47 222.92 C89.78 165.05, 140.57 107.04, 230.7 1.79 M43.46 223.28 C100.45 158.33, 158.86 91.47, 235.69 2.15 M43.46 223.28 C119.96 136.1, 195.63 49.81, 235.69 2.15 M49.1 222.89 C101.56 161.08, 153.77 102.89, 241.33 1.76 M49.1 222.89 C111.96 149.89, 175.5 77.22, 241.33 1.76 M54.09 223.25 C98.41 169.63, 146.83 117.59, 246.32 2.12 M54.09 223.25 C125.33 144.91, 195.53 63.63, 246.32 2.12 M59.73 222.85 C115.26 160.26, 170.97 95.64, 251.96 1.72 M59.73 222.85 C108.9 165.58, 158.51 109.7, 251.96 1.72 M64.72 223.21 C105.3 179.82, 141.93 133.83, 256.95 2.08 M64.72 223.21 C112.57 170.98, 159.14 117.85, 256.95 2.08 M70.36 222.82 C112.29 176.35, 152.52 129.92, 262.59 1.69 M70.36 222.82 C127.97 156.01, 187.57 88.97, 262.59 1.69 M75.35 223.18 C124.29 167.28, 173.56 110.07, 267.58 2.05 M75.35 223.18 C149.05 137.28, 224.41 51.93, 267.58 2.05 M80.99 222.78 C149.94 144.26, 218.26 64.94, 272.56 2.41 M80.99 222.78 C131.87 164.73, 181.57 107.85, 272.56 2.41 M85.98 223.14 C134.36 168.83, 183.55 111.92, 278.21 2.01 M85.98 223.14 C148.65 152.03, 211.35 80.9, 278.21 2.01 M91.62 222.75 C163.58 141.22, 231.75 62.12, 283.19 2.37 M91.62 222.75 C148.63 157.3, 205.49 91.55, 283.19 2.37 M96.61 223.11 C149.87 159.57, 208.7 93.9, 288.84 1.98 M96.61 223.11 C138.64 174.43, 180.12 126.43, 288.84 1.98 M102.25 222.71 C158.6 156.59, 217.37 89.3, 293.82 2.34 M102.25 222.71 C161.56 152.31, 221.85 83.04, 293.82 2.34 M107.24 223.07 C155.36 164.3, 207.48 106.51, 299.47 1.94 M107.24 223.07 C145.72 177.89, 187.08 130.36, 299.47 1.94 M112.88 222.68 C176.97 148.38, 242.95 72.66, 304.45 2.3 M112.88 222.68 C154.69 176.26, 194.44 129.42, 304.45 2.3 M117.87 223.04 C176.11 157.95, 232.7 92, 310.1 1.91 M117.87 223.04 C173.52 158, 229.62 93.77, 310.1 1.91 M123.51 222.65 C171.22 165.72, 218.8 108.64, 315.08 2.27 M123.51 222.65 C196.99 135.76, 272.67 50.06, 315.08 2.27 M128.5 223.01 C189.35 153.09, 252.57 82.53, 320.73 1.88 M128.5 223.01 C166.9 177.34, 207.62 130.43, 320.73 1.88 M134.14 222.61 C205.13 141.64, 276.78 58.37, 325.71 2.24 M134.14 222.61 C187.6 160.47, 240.44 101.2, 325.71 2.24 M139.13 222.97 C196.41 154.25, 256.67 85.09, 331.36 1.84 M139.13 222.97 C208.63 140.92, 279.73 59.67, 331.36 1.84 M144.12 223.33 C184.74 173.61, 225.84 129.01, 338.31 -0.06 M144.12 223.33 C217.53 136.1, 291.59 50.96, 338.31 -0.06 M149.76 222.94 C189 179.12, 227.11 133.53, 343.3 0.3 M149.76 222.94 C215.6 148.55, 280.63 73.52, 343.3 0.3 M154.75 223.3 C197.2 178.35, 235.02 130.11, 346.97 2.17 M154.75 223.3 C201.6 169.13, 248.73 113.93, 346.97 2.17 M160.39 222.9 C201.47 174.17, 243.85 127.67, 351.3 3.28 M160.39 222.9 C223.93 149.48, 287.34 76.08, 351.3 3.28 M165.38 223.26 C212.09 172.05, 257.66 117.83, 355.64 4.4 M165.38 223.26 C223.7 154.5, 281.3 88.49, 355.64 4.4 M171.02 222.87 C237.1 148.39, 302.77 74.58, 359.31 6.27 M171.02 222.87 C235.3 148.99, 300.83 74.22, 359.31 6.27 M176.01 223.23 C225.46 167.03, 275.94 109.29, 362.33 8.89 M176.01 223.23 C213.42 178.4, 252.02 133.89, 362.33 8.89 M181.65 222.83 C221.99 177.87, 261.53 130.77, 365.35 11.51 M181.65 222.83 C218 181.46, 256.52 137.24, 365.35 11.51 M186.64 223.19 C239.67 163.28, 290.38 102.46, 367.71 14.89 M186.64 223.19 C240.26 160.87, 295.62 96.92, 367.71 14.89 M192.28 222.8 C235.55 167.96, 283.79 113.89, 369.42 19.03 M192.28 222.8 C246.35 159.37, 301.22 96.11, 369.42 19.03 M197.27 223.16 C235.59 181.3, 270.53 139.76, 369.81 24.67 M197.27 223.16 C259.13 151.42, 321.81 79.63, 369.81 24.67 M202.91 222.76 C261.38 152.83, 319.88 84.68, 370.86 29.56 M202.91 222.76 C254.24 161.46, 306.22 100.74, 370.86 29.56 M207.9 223.12 C269.35 152.62, 330.86 78.5, 372.57 33.69 M207.9 223.12 C246.88 177.16, 287.31 129.49, 372.57 33.69 M213.54 222.73 C268.53 160.07, 322.43 96.1, 372.31 40.09 M213.54 222.73 C250.13 180.53, 285.41 139.83, 372.31 40.09 M218.53 223.09 C251.98 181.93, 285.9 142.64, 372.05 46.49 M218.53 223.09 C256.73 182.94, 293.28 140.11, 372.05 46.49 M224.17 222.7 C276.1 160.93, 328.47 100.87, 372.44 52.13 M224.17 222.7 C271.54 166.23, 321.13 110.81, 372.44 52.13 M229.16 223.06 C261.16 188.13, 289.85 155.4, 372.18 58.53 M229.16 223.06 C275.76 169.5, 322.75 115.91, 372.18 58.53 M234.8 222.66 C272.54 179.75, 307.46 140.43, 372.57 64.17 M234.8 222.66 C265.98 186.87, 296.89 149.79, 372.57 64.17 M239.79 223.02 C282.87 173.53, 326.55 124.58, 372.31 70.57 M239.79 223.02 C280.13 177.88, 318.42 132.98, 372.31 70.57 M245.43 222.63 C271.31 189.62, 301.98 158.08, 372.05 76.97 M245.43 222.63 C275.91 191.4, 304.08 157.85, 372.05 76.97 M250.42 222.99 C294.35 170.89, 338.51 120.86, 372.45 82.61 M250.42 222.99 C282.64 187.45, 313.56 149.92, 372.45 82.61 M255.41 223.35 C298.15 173.19, 337.46 125.27, 372.18 89.01 M255.41 223.35 C294.95 176.35, 337.63 127.23, 372.18 89.01 M261.05 222.95 C288.5 195.07, 315.16 166.05, 372.58 94.65 M261.05 222.95 C295.93 181.64, 331.35 142.64, 372.58 94.65 M266.04 223.31 C293.32 191.54, 317.67 161.93, 372.32 101.05 M266.04 223.31 C300.13 182.85, 334.82 144.74, 372.32 101.05 M271.68 222.92 C298.65 190.88, 327.46 160.42, 372.06 107.45 M271.68 222.92 C300.13 190.64, 328.21 156.87, 372.06 107.45 M276.67 223.28 C302.2 195.01, 322.19 168.71, 372.45 113.09 M276.67 223.28 C314.35 179.25, 351.98 137.4, 372.45 113.09 M282.31 222.88 C309.48 190.67, 339.49 154.48, 372.19 119.49 M282.31 222.88 C318.42 182.34, 353.25 141.65, 372.19 119.49 M287.3 223.24 C317.6 187.59, 349.64 150.78, 372.58 125.13 M287.3 223.24 C309.57 198.22, 331.72 171.92, 372.58 125.13 M292.94 222.85 C314.05 201.46, 334.06 177.96, 372.32 131.53 M292.94 222.85 C323.3 188.73, 354.28 154.19, 372.32 131.53 M297.93 223.21 C313.81 206.45, 329.79 189.85, 372.06 137.93 M297.93 223.21 C313.92 204.43, 330.86 185.01, 372.06 137.93 M303.57 222.81 C323.28 202.1, 338.44 181.64, 372.46 143.57 M303.57 222.81 C329.3 192.45, 355.12 162.41, 372.46 143.57 M308.56 223.17 C321.09 207.63, 336.88 190.98, 372.19 149.97 M308.56 223.17 C333.31 193.71, 358.1 165.39, 372.19 149.97 M314.2 222.78 C334.14 201.9, 350.61 176.89, 372.59 155.61 M314.2 222.78 C328.04 207.79, 342.25 191.75, 372.59 155.61 M319.19 223.14 C330.01 210.69, 342.93 197.27, 372.33 162.01 M319.19 223.14 C334.42 205.33, 349.36 188.87, 372.33 162.01 M324.83 222.74 C341.97 203.44, 361.65 182.23, 372.07 168.41 M324.83 222.74 C334.73 210.65, 345.95 199.17, 372.07 168.41 M329.82 223.1 C344.43 207.13, 355.41 194.79, 372.46 174.05 M329.82 223.1 C339.44 213.04, 348.72 202.3, 372.46 174.05 M335.46 222.71 C348.44 208.79, 360.9 191.04, 372.2 180.45 M335.46 222.71 C345.1 211.56, 354.27 200.24, 372.2 180.45 M339.79 223.83 C351.87 210.72, 361.4 201.5, 372.59 186.09 M339.79 223.83 C350.77 210.98, 360.8 199.94, 372.59 186.09 M346.09 222.68 C353.22 213.67, 363.73 205.52, 372.33 192.49 M346.09 222.68 C356.34 210.24, 366.55 199.68, 372.33 192.49 M353.05 220.77 C356.65 216.9, 361.8 211.17, 371.42 199.64 M353.05 220.77 C359.75 214.21, 365.88 206.35, 371.42 199.64" stroke="#e64980" stroke-width="0.5" fill="none"/><path d="M32 0 M32 0 C120 -2.22, 206.84 -0.65, 338 0 M32 0 C101.07 -1.84, 170.59 -2.43, 338 0 M338 0 C358.01 -1.67, 369.63 11.24, 370 32 M338 0 C361.4 -1.53, 371.49 8.56, 370 32 M370 32 C371.9 80.3, 368.63 126.35, 370 190 M370 32 C369.55 72.05, 370.36 112.84, 370 190 M370 190 C369.34 211, 359.83 220.93, 338 222 M370 190 C369.92 211.72, 360.97 222.9, 338 222 M338 222 C232.78 222.7, 125.23 222.18, 32 222 M338 222 C265.44 221.37, 192.87 220.77, 32 222 M32 222 C9.83 223.38, 0.43 211.58, 0 190 M32 222 C12.43 223.6, -1.49 212.82, 0 190 M0 190 C1.99 136.68, -0.22 81.21, 0 32 M0 190 C-0.87 138.54, -0.58 85.68, 0 32 M0 32 C1.39 12.16, 9.29 -0.6, 32 0 M0 32 C0.7 12.59, 9.43 -1.72, 32 0" stroke="#a61e4d" stroke-width="1" fill="none"/></g></svg>